<?xml version="1.0" encoding="utf-8"?>
<!-- Generator: Adobe Illustrator 23.1.0, SVG Export Plug-In . SVG Version: 6.00 Build 0)  -->
<svg version="1.1" id="Capa_1" xmlns="http://www.w3.org/2000/svg" xmlns:xlink="http://www.w3.org/1999/xlink" x="0px" y="0px"
	 viewBox="0 0 384 512" style="enable-background:new 0 0 384 512;" xml:space="preserve">
<style type="text/css">
	.st0{fill:#0066CC;}
</style>
<path class="st0" d="M19,272.5l40.6,18.1c7.9,3.5,16.9,3.7,24.9,0.5l12.8-5.1c9-3.6,16-11.2,18.8-20.5l9.2-30.6
	c1.7-6.8,6.3-12.5,12.6-15.6l22.1-11.1v50.3c0,18.2-10.3,34.8-26.5,42.9L76.3,330C49.1,343.5,32,371.2,32,401.5V416h319.9V224
	C351.9,118,266,32,160,32H12C5.4,32,0,37.4,0,44c0,2.6,0.6,5.2,1.8,7.6L16,80l-9,9c-4.5,4.5-7,10.6-7,17v137.2
	C0,255.9,7.4,267.3,19,272.5z M52,128c11,0,20,9,20,20s-9,20-20,20s-20-9-20-20S41,128,52,128z M368,448H16c-8.8,0-16,7.2-16,16v32
	c0,8.8,7.2,16,16,16h352c8.8,0,16-7.2,16-16v-32C384,455.2,376.8,448,368,448z"/>
</svg>
